# xmcd
#
# Track frame offsets: 
#        150
#        8844
#        20252
#        31958
#        35378
#        48138
#        59703
#        67976
#        75115
#        90106
#        99128
#        105704
#        115276
#
# Disc length: 1945 seconds
#
# Revision: 0
# Processed by: cddbd v1.5.2PL0 Copyright (c) Steve Scherf et al.
# Submitted via: ExactAudioCopy v0.95b4
#
DISCID=8707970d
DTITLE=Jon Wayne - Texas Funeral
DYEAR=1900
DGENRE=
TTITLE0=But I've Got Texas
TTITLE1=Texas Funeral
TTITLE2=Mr. Egyptian
TTITLE3=Texas Cyclone
TTITLE4=Texas Wine
TTITLE5=You and the Kitten
TTITLE6=Is That Justice?
TTITLE7=Truckin'
TTITLE8=Texas Jailcell
TTITLE9=Apple Schnapps
TTITLE10=Shades
TTITLE11=Texas Polka
TTITLE12=Texas Studio
EXTD=
EXTT0=
EXTT1=
EXTT2=
EXTT3=
EXTT4=
EXTT5=
EXTT6=
EXTT7=
EXTT8=
EXTT9=
EXTT10=
EXTT11=
EXTT12=
PLAYORDER=
